HIERARCHY
ROOT Hips
{
	OFFSET 0.000000 0.000000 0.000000 
	CHANNELS 6 Xposition Yposition Zposition Yrotation Zrotation Xrotation 
	JOINT Lumbar
	{
		OFFSET 0.000000 0.000000 0.000000 
		CHANNELS 3 Zrotation Xrotation Yrotation
		JOINT Neck
		{
			OFFSET 0.000000 0.445665 0.000000 
			CHANNELS 3 Zrotation Xrotation Yrotation
			End Site
			{
				OFFSET 0.000000 0.227535 0.000000 
			}
		}
		JOINT RightShoulder
		{
			OFFSET 0.019635 0.377685 0.194865 
			CHANNELS 3 Zrotation Xrotation Yrotation
			JOINT RightElbow
			{
				OFFSET 0.000000 -0.243375 0.000000 
				CHANNELS 2 Zrotation Yrotation
				JOINT RightWrist
				{
					OFFSET 0.000000 -0.264825 0.000000 
					CHANNELS 2 Zrotation Xrotation
					End Site
					{
						OFFSET 0.006600 -0.176220 0.000990 
					}
				}
			}
		}
		JOINT LeftShoulder
		{
			OFFSET 0.019635 0.377685 -0.194865 
			CHANNELS 3 Zrotation Xrotation Yrotation
			JOINT LeftElbow
			{
				OFFSET 0.000000 -0.243375 0.000000 
				CHANNELS 2 Zrotation Yrotation
				JOINT LeftWrist
				{
					OFFSET 0.000000 -0.264825 0.000000 
					CHANNELS 2 Zrotation Xrotation
					End Site
					{
						OFFSET 0.006600 -0.176220 -0.000990 
					}
				}
			}
		}
	}
	JOINT RightHip
	{
		OFFSET 0.052140 -0.069960 0.075570 
		CHANNELS 3 Zrotation Xrotation Yrotation
		JOINT RightKnee
		{
			OFFSET 0.000000 -0.402270 0.000000 
			CHANNELS 1 Zrotation
			JOINT RightAnkle
			{
				OFFSET 0.000000 -0.404085 0.000000 
				CHANNELS 3 Zrotation Xrotation Yrotation
				End Site
				{
					OFFSET 0.204105 -0.089430 0.008415 
				}
			}
		}
	}
	JOINT LeftHip
	{
		OFFSET 0.052140 -0.069960 -0.075570 
		CHANNELS 3 Zrotation Xrotation Yrotation
		JOINT LeftKnee
		{
			OFFSET 0.000000 -0.402270 0.000000 
			CHANNELS 1 Zrotation
			JOINT LeftAnkle
			{
				OFFSET 0.000000 -0.404085 0.000000 
				CHANNELS 3 Zrotation Xrotation Yrotation
				End Site
				{
					OFFSET 0.204105 -0.089430 -0.008415 
				}
			}
		}
	}
}
MOTION
Frames: 14
Frame Time: 0.02
-0.0025 -6e-05 -0.00029 20.99467 -29.85412 -5.43565 46.53119 2.73042 -6.18247 12.46032 0.56113 -0.12775 12.99407 -13.90657 17.95666 34.83436 85.0701 2.3369 -1.45743 28.01498 8.09529 -24.83189 37.67085 -81.67321 -2.23442 7.45965 45.10691 -0.00128 3.82702 -19.36799 -6.98655 -4.48486 -3.02737 48.74569 4.26654 8.01654 -25.22363 -6.66285 2.16212 1.75054
-0.00253 -5e-05 -0.00011 20.94389 -29.84564 -5.42671 46.51281 2.72535 -6.00576 12.34522 0.61937 -0.1288 12.55783 -13.85078 18.13325 34.87932 85.05616 2.4537 -1.45148 27.42176 7.8624 -24.56698 38.64908 -81.69093 -2.12652 6.05595 45.11304 -0.12416 3.0584 -19.37235 -6.95191 -4.38183 -2.96797 48.74823 4.20126 7.67642 -25.23146 -6.66396 2.22835 1.78424
-0.00257 -4e-05 7e-05 20.8931 -29.83718 -5.41776 46.49437 2.72032 -5.82948 12.23008 0.6777 -0.12992 12.1217 -13.79508 18.30883 34.9231 85.04226 2.57006 -1.44549 26.82792 7.63113 -24.30348 39.62442 -81.70935 -2.01864 4.65823 45.11915 -0.24671 2.29188 -19.37668 -6.91736 -4.27906 -2.90872 48.75074 4.1362 7.3375 -25.23926 -6.66506 2.29439 1.81783
-0.0026 -3e-05 0.00025 20.84245 -29.82873 -5.40885 46.47603 2.71527 -5.65328 12.11528 0.7358 -0.13098 11.68661 -13.73944 18.48486 34.9678 85.02833 2.68648 -1.43956 26.23619 7.3991 -24.03952 40.59971 -81.72683 -1.91111 3.25924 45.12525 -0.36922 1.52555 -19.38101 -6.88282 -4.17634 -2.8495 48.75327 4.07113 6.99847 -25.24707 -6.66616 2.36041 1.85143
-0.00263 -1e-05 0.00043 20.79187 -29.82026 -5.39993 46.45777 2.71019 -5.47672 12.00062 0.7937 -0.13194 11.25189 -13.68375 18.66193 35.01396 85.01445 2.80337 -1.43365 25.64581 7.16516 -23.77384 41.5777 -81.74418 -1.80345 1.85333 45.13136 -0.49203 0.75733 -19.38537 -6.84819 -4.07338 -2.79015 48.75584 4.0058 6.65815 -25.25491 -6.66727 2.42665 1.88512
-0.00266 -0 0.00062 20.74063 -29.81182 -5.39092 46.43895 2.70528 -5.30105 11.8845 0.85294 -0.13337 10.81283 -13.62805 18.83426 35.05268 85.00057 2.91865 -1.42749 25.04464 6.93951 -23.51487 42.54735 -81.76534 -1.69495 0.47271 45.13751 -0.61401 -0.00553 -19.38965 -6.81383 -3.97102 -2.73113 48.75822 3.94131 6.32216 -25.26263 -6.66836 2.49224 1.91852
-0.00269 1e-05 0.0008 20.69082 -29.80333 -5.38214 46.42134 2.69998 -5.12374 11.7715 0.90941 -0.13387 10.38297 -13.57239 19.01636 35.10662 84.98647 3.03697 -1.4219 24.46634 6.69738 -23.24299 43.53302 -81.77655 -1.58893 -0.95633 45.14353 -0.73754 -0.77853 -19.39408 -6.77896 -3.86757 -2.6715 48.76097 3.87527 5.97795 -25.27058 -6.66949 2.55903 1.95247
-0.00272 2e-05 0.00098 20.63958 -29.7949 -5.37309 46.40248 2.69514 -4.94801 11.65551 0.96846 -0.13521 9.94465 -13.51677 19.1887 35.14597 84.97298 3.15262 -1.41568 23.86606 6.47052 -22.98245 44.50336 -81.80105 -1.47939 -2.34244 45.14975 -0.85963 -1.54183 -19.39837 -6.74456 -3.76513 -2.61244 48.76342 3.81055 5.6411 -25.27833 -6.67059 2.62477 1.98593
-0.00275 3e-05 0.00116 20.58698 -29.78645 -5.36392 46.38257 2.69045 -4.77385 11.53619 1.03065 -0.13764 9.49547 -13.46086 19.35205 35.16953 84.95863 3.26453 -1.40911 23.24175 6.26211 -22.73798 45.45758 -81.82564 -1.37036 -3.66954 45.15591 -0.98004 -2.29504 -19.40251 -6.7107 -3.66384 -2.55401 48.76532 3.74782 5.31402 -25.28581 -6.67163 2.68905 2.0187
-0.00278 5e-05 0.00135 20.54337 -29.77785 -5.35606 46.37018 2.68366 -4.58954 11.43699 1.07471 -0.13403 9.10717 -13.40558 19.57598 35.29007 84.94438 3.3965 -1.40578 22.76413 5.94693 -22.4077 46.51249 -81.80112 -1.27284 -5.31653 45.16149 -1.11037 -3.11164 -19.40757 -6.67363 -3.55566 -2.49175 48.76982 3.67478 4.93303 -25.29473 -6.67292 2.76121 2.05517
-0.00282 5e-05 0.00152 20.48006 -29.76976 -5.34506 46.34099 2.68211 -4.42738 11.29481 1.15706 -0.14301 8.59165 -13.34966 19.66645 35.20219 84.93305 3.48711 -1.39484 21.97195 5.8573 -22.25419 47.34981 -81.91118 -1.14186 -6.30123 45.16887 -1.21962 -3.791 -19.41064 -6.64342 -3.46224 -2.43773 48.76923 3.62277 4.66433 -25.30067 -6.67375 2.81707 2.08402
-0.00287 0 0.00163 20.36782 -29.76159 -5.3283 46.27251 2.68851 -4.32044 11.03742 1.34532 -0.18814 7.71336 -13.28686 19.43213 34.56835 84.90684 3.45528 -1.36813 20.34764 6.39102 -22.62588 47.6282 -82.12541 -0.99695 -5.3434 45.17689 -1.27211 -4.12054 -19.40848 -6.63147 -3.40759 -2.40502 48.75138 3.63477 4.71834 -25.29796 -6.67273 2.82515 2.09029
-0.00294 -6e-05 0.00171 20.23455 -29.75425 -5.30776 46.18563 2.7015 -4.23673 10.73621 1.57196 -0.24562 6.71017 -13.22469 19.05536 33.72089 84.88974 3.38367 -1.33207 18.40106 7.15069 -23.1677 47.68217 -82.51349 -0.80659 -3.74141 45.18769 -1.3035 -4.30839 -19.40427 -6.62654 -3.36791 -2.38071 48.72913 3.6666 4.88219 -25.29233 -6.67138 2.81751 2.08924
-0.00301 -0.00012 0.00179 20.10794 -29.74745 -5.28721 46.10309 2.71547 -4.14606 10.45346 1.78037 -0.29642 5.77259 -13.16518 18.71762 32.95362 84.88092 3.336 -1.29793 16.58242 7.80377 -23.60539 47.81246 -83.00849 -0.58282 -2.51891 45.19981 -1.34349 -4.54221 -19.40082 -6.61875 -3.32278 -2.35351 48.71091 3.6854 4.98651 -25.28835 -6.67048 2.81898 2.09259
